<svg xmlns="http://www.w3.org/2000/svg" viewBox="0 0 500 500"><g id="freepik--background-simple--inject-89"><path d="M432.32,119.46l-2.06-3.41c-17.41-28.69-48.89-46-82.07-43.88a86.5,86.5,0,0,0-12.71,1.74c-30.17,6.46-56.43,29.28-67.31,58.5-6.4,17.19-8.19,37-20.34,50.62-15.8,17.75-42.64,18.31-66.23,17.57s-50.45-.1-66.18,17.72c-9.85,11.16-13,27-12.19,42,2.1,39.58,29.68,75,64.76,92.56S244.36,372,282.75,364.3c53.77-10.84,104.91-40.61,135.65-86.59S456.92,169.08,432.32,119.46Z" style="fill:#f5f5f5"></path><circle cx="219.42" cy="80.18" r="26.82" transform="translate(91.49 275.66) rotate(-76.87)" style="fill:#f5f5f5"></circle></g><g id="freepik--Character--inject-89"><path d="M284.72,409.77l24.69,22.54s31.4-17.54,36.17-13.81L303.63,466l-38.32-33.52Z" style="fill:#7E57C2"></path><path d="M295,444.13a2.59,2.59,0,0,0,1,3.29,2.49,2.49,0,0,0,3.28-1,2.72,2.72,0,0,0-1.11-3.48c-1.17-.48-3,.17-3.29,1.41" style="fill:#e0e0e0"></path><path d="M303.63,466l-3.73-3.53,41.62-44.18s2.79-1.3,4.06.26Z" style="fill:#263238"></path><path d="M310.44,431.12c.22.21-.7,1.47-1,3.27s.17,3.26-.11,3.39-1.31-1.39-.95-3.56S310.27,430.88,310.44,431.12Z" style="fill:#263238"></path><path d="M316.9,427.13c.27.15-.23,1.5.06,3.15s1.12,2.8.9,3-1.65-.79-2-2.85S316.67,426.94,316.9,427.13Z" style="fill:#263238"></path><path d="M325.35,429.57c-.13.25-1.58-.45-2.32-2.16s-.29-3.25,0-3.18.36,1.34,1,2.74S325.53,429.32,325.35,429.57Z" style="fill:#263238"></path><path d="M254.53,433.93c-1.81-1.5-4.25-1.94-6.58-2.33,1.77-12.62-7-24.14-16.19-33-11.48-11.15-24.74-21-40.12-25.48-13.89-4-28.64-3.31-43.08-2.58l-59.22,3c-20.2,7.07-37.24,28-40.77,49.13a6.93,6.93,0,0,0-10,1.1,7.39,7.39,0,0,0,2.17,10.05,7.91,7.91,0,0,0,10.22-2.11,128.28,128.28,0,0,0,90.17,13.92c9.51-2.07,18.78-5.23,28.34-7.06A207.14,207.14,0,0,1,190.94,436l40.68-3.46,15.9,7.58c2.65,1.26,6.25,2.35,8.15.11C257.19,438.38,256.35,435.44,254.53,433.93Z" style="fill:#455a64"></path><path d="M207.87,426.78a2,2,0,0,1-.38.06l-1.15.14-4.4.46c-1.9.24-4.23.58-6.93,1s-5.76.94-9.13,1.63c-6.75,1.29-14.72,3.12-23.59,5.12s-18.65,4.13-29.07,5.5a125.47,125.47,0,0,1-29.56.49A134.18,134.18,0,0,1,80.06,436c-6.57-2.05-11.78-4-15.36-5.42-1.79-.7-3.17-1.26-4.11-1.65l-1.06-.45a2,2,0,0,1-.35-.17,1.8,1.8,0,0,1,.37.12l1.08.4,4.14,1.56c3.61,1.34,8.83,3.26,15.4,5.25a135.58,135.58,0,0,0,23.55,5,126.2,126.2,0,0,0,29.44-.53c10.38-1.36,20.15-3.49,29-5.44s16.87-3.78,23.63-5c3.38-.67,6.46-1.11,9.15-1.55s5-.67,7-.88l4.41-.37,1.15-.08A1.64,1.64,0,0,1,207.87,426.78Z" style="fill:#263238"></path><path d="M106.51,447.88c-.05,0-.34-.31-.56-1a4.61,4.61,0,0,1,0-2.77,4.68,4.68,0,0,1,1.57-2.28c.57-.44,1-.56,1-.51s-.32.31-.79.78a5.22,5.22,0,0,0-1.45,4.69C106.42,447.45,106.58,447.85,106.51,447.88Z" style="fill:#263238"></path><path d="M101.45,445.17a2.85,2.85,0,0,1,.09-2.62c.61-1.43,1.82-2,1.86-1.85s-.86.8-1.39,2.06A15.31,15.31,0,0,0,101.45,445.17Z" style="fill:#263238"></path><path d="M84.45,403.58c.1,0-.86,1.78-1.84,4.8a25,25,0,0,0-.71,2.49c-.25.9-.41,1.89-.6,2.92a36.37,36.37,0,0,0,.39,13.53c.25,1,.47,2,.77,2.88s.56,1.71.84,2.45c1.17,3,2.22,4.63,2.12,4.69a7.81,7.81,0,0,1-.76-1.17,12.65,12.65,0,0,1-.78-1.43c-.28-.57-.63-1.21-.92-2a24.41,24.41,0,0,1-.91-2.45c-.33-.89-.56-1.87-.83-2.9a34.71,34.71,0,0,1-.39-13.72c.21-1,.38-2,.65-2.94s.51-1.75.78-2.51.55-1.42.79-2a12.8,12.8,0,0,1,.71-1.47A6.61,6.61,0,0,1,84.45,403.58Z" style="fill:#263238"></path><path d="M107.19,400.68a17.37,17.37,0,0,0-4.54,2.14,17.38,17.38,0,0,0-3.39,3.69,3.39,3.39,0,0,1,.59-1.4,9.57,9.57,0,0,1,5.82-4.28A3.3,3.3,0,0,1,107.19,400.68Z" style="fill:#263238"></path><path d="M110.12,425.34a3.91,3.91,0,0,1-.44-.91,7.83,7.83,0,0,1-.4-1.12,14.61,14.61,0,0,1-.42-1.52,20.74,20.74,0,0,1-.5-4.07,23.43,23.43,0,0,1,.46-5,23.83,23.83,0,0,1,1.59-4.77,20.69,20.69,0,0,1,2.1-3.52,14,14,0,0,1,1-1.22,8.79,8.79,0,0,1,.82-.86c.47-.45.74-.69.77-.66s-1,1.06-2.28,2.95a22.78,22.78,0,0,0-2,3.51,23,23,0,0,0-2,9.57,22.84,22.84,0,0,0,.38,4C109.66,424,110.22,425.3,110.12,425.34Z" style="fill:#263238"></path><path d="M51.05,421.43c.14-.05.68,1.26,1.75,2.6s2.22,2.18,2.13,2.31a6.89,6.89,0,0,1-3.88-4.91Z" style="fill:#263238"></path><path d="M188.63,436c0-.08.42-.24,1-.72a3.87,3.87,0,0,0,1.33-2.39,3.94,3.94,0,0,0-.68-2.65c-.41-.61-.81-.88-.76-.95s.51.12,1,.72a3.83,3.83,0,0,1,.91,2.94,3.78,3.78,0,0,1-1.63,2.62C189.15,436,188.64,436.07,188.63,436Z" style="fill:#263238"></path><path d="M197.8,434.27a15.32,15.32,0,0,0-.42-2.82A15.1,15.1,0,0,0,196,429a3.55,3.55,0,0,1,1.88,2.33A3.46,3.46,0,0,1,197.8,434.27Z" style="fill:#263238"></path><path d="M179.4,389.63a10.42,10.42,0,0,1,1.08,1.34,14.58,14.58,0,0,1,1.14,1.66,22.21,22.21,0,0,1,1.34,2.31c.23.44.47.9.71,1.38s.44,1,.67,1.55a36.32,36.32,0,0,1,1.27,3.5,41.61,41.61,0,0,1,1.53,8.39,41.09,41.09,0,0,1-.39,8.51,34.83,34.83,0,0,1-.78,3.65c-.16.56-.28,1.11-.45,1.62s-.35,1-.52,1.47a25.47,25.47,0,0,1-1,2.47,14.91,14.91,0,0,1-.91,1.8,9.53,9.53,0,0,1-.89,1.47c-.11-.06,1.19-2.15,2.47-5.86q.24-.7.48-1.47c.17-.51.28-1.06.42-1.61.32-1.11.5-2.33.73-3.61a43.22,43.22,0,0,0,.34-8.41,42.28,42.28,0,0,0-1.47-8.28c-.4-1.23-.74-2.42-1.21-3.48-.22-.53-.4-1.06-.63-1.54l-.67-1.38C180.86,391.6,179.29,389.7,179.4,389.63Z" style="fill:#263238"></path><path d="M63.93,430c0,.08-.32.31-.78.79a5.4,5.4,0,0,0-1.36,4.77c.14.65.33,1,.25,1.08s-.36-.3-.61-1a4.68,4.68,0,0,1,0-2.8,4.61,4.61,0,0,1,1.51-2.34C63.47,430.05,63.91,429.94,63.93,430Z" style="fill:#fff"></path><path d="M79.4,378.39s-.12.16-.37.43L77.88,380c-.51.48-1.12,1.08-1.78,1.82s-1.47,1.54-2.24,2.52c-.39.49-.81,1-1.24,1.51s-.83,1.12-1.27,1.71c-.89,1.16-1.72,2.5-2.61,3.88a60.19,60.19,0,0,0-7.82,19.87c-.29,1.63-.59,3.17-.73,4.63-.08.73-.19,1.43-.23,2.11s-.08,1.33-.12,2c-.11,1.24-.07,2.37-.08,3.36a24.74,24.74,0,0,0,.06,2.55c0,.65,0,1.18.07,1.61a3.2,3.2,0,0,1,0,.57,2.33,2.33,0,0,1-.1-.56c0-.42-.1-1-.16-1.61a22.16,22.16,0,0,1-.15-2.55c0-1-.08-2.13,0-3.39,0-.63.06-1.29.09-2s.13-1.39.2-2.13c.12-1.48.41-3,.69-4.67a58.47,58.47,0,0,1,7.88-20c.91-1.39,1.76-2.73,2.68-3.89.45-.58.85-1.17,1.29-1.7l1.29-1.5c.79-1,1.61-1.76,2.3-2.48a23.75,23.75,0,0,1,1.85-1.77L79,378.74A2.91,2.91,0,0,1,79.4,378.39Z" style="fill:#fff"></path><path d="M115.13,372.49a5.36,5.36,0,0,1-.66.4c-.43.26-1.11.57-1.91,1.09a40,40,0,0,0-6.46,4.85A45.44,45.44,0,0,0,98.49,388a52.44,52.44,0,0,0-5.94,13.37,72.77,72.77,0,0,0-2,26.49c.33,3.41.75,6.15,1.07,8l.36,2.18a4.25,4.25,0,0,1,.1.76,3.67,3.67,0,0,1-.2-.74c-.11-.5-.29-1.22-.46-2.16-.38-1.89-.85-4.63-1.23-8a79.27,79.27,0,0,1-.44-12.06,63.71,63.71,0,0,1,2.26-14.61,51.24,51.24,0,0,1,6-13.48,44,44,0,0,1,7.78-9.23,36.4,36.4,0,0,1,6.6-4.76c.82-.49,1.52-.77,2-1A4.28,4.28,0,0,1,115.13,372.49Z" style="fill:#fff"></path><path d="M80.89,436.27c.06.06-.28.41-.66,1.06a6.31,6.31,0,0,0-.82,2.78,6.46,6.46,0,0,0,.53,2.86c.31.68.62,1.06.55,1.12s-.45-.26-.87-.95a5.46,5.46,0,0,1-.73-3.05,5.54,5.54,0,0,1,1-3C80.42,436.48,80.86,436.23,80.89,436.27Z" style="fill:#fff"></path><path d="M121.6,448.24c0,.06-.5.08-1.21-.25a3.93,3.93,0,0,1-1.91-5.2c.33-.72.72-1,.77-1a11.45,11.45,0,0,1-.43,1.11,4.3,4.3,0,0,0,0,2.68,4.24,4.24,0,0,0,1.72,2.07C121.17,448.05,121.62,448.16,121.6,448.24Z" style="fill:#fff"></path><path d="M140.1,370.23c.14,0-.65,15.56-1.78,34.74s-2.15,34.71-2.29,34.71.65-15.56,1.77-34.74S140,370.22,140.1,370.23Z" style="fill:#fff"></path><path d="M160.33,440.88c-.15,0-.22-1.31-.78-2.79s-1.34-2.53-1.22-2.62a4.44,4.44,0,0,1,1.71,2.44A4.37,4.37,0,0,1,160.33,440.88Z" style="fill:#fff"></path><path d="M164.09,372.09s.2.12.54.39.84.65,1.44,1.21a45.27,45.27,0,0,1,4.83,5,48.72,48.72,0,0,1,9.94,43.13,46.31,46.31,0,0,1-2.16,6.6c-.3.76-.59,1.33-.77,1.72a2.83,2.83,0,0,1-.31.58,3.3,3.3,0,0,1,.21-.62c.15-.41.41-1,.68-1.75a51.81,51.81,0,0,0,2-6.61,49.66,49.66,0,0,0-9.86-42.81,52.78,52.78,0,0,0-4.68-5.07c-.58-.58-1.07-1-1.38-1.28A3.94,3.94,0,0,1,164.09,372.09Z" style="fill:#fff"></path><path d="M209,434.32a38,38,0,0,0-1.48-4,36.11,36.11,0,0,0-2.37-3.51,9.19,9.19,0,0,1,3.85,7.48Z" style="fill:#fff"></path><path d="M229,422s.59.23,1.25,1a7.1,7.1,0,0,1,1.24,7.24c-.38.91-.81,1.36-.86,1.32s.24-.55.51-1.44a7.83,7.83,0,0,0,.22-3.58,8,8,0,0,0-1.39-3.31C229.43,422.48,229,422.1,229,422Z" style="fill:#fff"></path><path d="M216.41,386.5a6.75,6.75,0,0,1,.52,1.32c.32.86.71,2.12,1.14,3.7a69.47,69.47,0,0,1,2,25.35c-.18,1.63-.37,2.94-.54,3.83a6.75,6.75,0,0,1-.32,1.39,8.56,8.56,0,0,1,.11-1.41c.12-.91.25-2.22.39-3.84a79.55,79.55,0,0,0-2-25.23c-.38-1.58-.72-2.85-1-3.73A8.58,8.58,0,0,1,216.41,386.5Z" style="fill:#fff"></path><g style="opacity:0.30000000000000004"><path d="M219.15,382.15C181.09,355.93,121.6,357,81,377.39c-.92,12.18,7.49,24.44,19.19,27.95,9,2.69,19.36.77,27.25,5.81,4.91,3.13,8.29,8.67,13.83,10.46,5.38,1.74,11.28-.64,15.85-4s8.42-7.65,13.27-10.58c11.71-7.11,26.51-4.87,40.19-4,6.7.44,15.35-.9,16.87-7.45C228.7,390.14,223.77,385.33,219.15,382.15Z"></path></g><path d="M216.13,281.8l6,25L234,318.38l-19.36,4s-13.69-1.62-16.16-5-6-30.27-6-30.27Z" style="fill:#ba7f72"></path><path d="M171.41,210.08l20.08,7.11.78,95s-28.64,25-30.37,24.78-71.14,21.78-73,25.86c0,0-8.58-1.32-8.58-6.41,0-8.36,8-13.1,8-13.1,1.26-9.39,9.24-20.33,9.24-20.88,0-3.9-3.68-28.38-3.68-28.38s-.38-61.39,11.89-74.33C121,203.63,171.41,210.08,171.41,210.08Z" style="fill:#7E57C2"></path><path d="M222.1,280.08s-17.41-62.65-32.22-63.18l1.63,74.88S218,287.22,222.1,280.08Z" style="fill:#7E57C2"></path><path d="M256,285.53l3.83-5.57a1.69,1.69,0,0,1,.44-.48,1.37,1.37,0,0,1,.8-.17A11,11,0,0,1,266,281l4.07,2.15a1,1,0,0,1,.32.22.8.8,0,0,1-.19,1.11,2.26,2.26,0,0,1-1.18.37c-4.08.51-8.19.85-12.3,1-.27,0-.62,0-.7-.29" style="fill:#ba7f72"></path><path d="M280.55,285.83l-27.22,27.41-58.82,13.39L210.68,295a8.06,8.06,0,0,1,6.09-4.34c11.94-1.61,46.35-6.29,61.65-8.83A2.39,2.39,0,0,1,280.55,285.83Z" style="fill:#e0e0e0"></path><path d="M280.55,285.83s.12-.14.3-.45a2.23,2.23,0,0,0,.27-1.51A2.36,2.36,0,0,0,279.6,282a2.77,2.77,0,0,0-1.59,0l-1.86.31c-5.26.88-12.88,2-22.3,3.41s-20.65,3-33.13,4.66c-1.54.23-3.17.39-4.7.69a7.69,7.69,0,0,0-4,2.4,8.44,8.44,0,0,0-1.32,2l-1.14,2.23-2.31,4.53c-3.12,6.1-6.35,12.42-9.65,18.89l-2.87,5.6-.29-.37,58.83-13.33-.1.05,19.95-20c2.36-2.35,4.2-4.18,5.48-5.44L280,286.3c.33-.32.51-.47.51-.47s-.15.18-.46.51l-1.4,1.45-5.4,5.52-19.82,20.07,0,0-.06,0-58.8,13.44L194,327l.25-.5c.94-1.84,1.9-3.71,2.86-5.6L206.8,302c.78-1.52,1.56-3,2.32-4.53l1.15-2.23a8.94,8.94,0,0,1,1.38-2.13,8.28,8.28,0,0,1,4.26-2.55c1.63-.31,3.18-.45,4.75-.68l33.14-4.55c9.43-1.33,17.05-2.43,22.31-3.25l1.87-.29a2.87,2.87,0,0,1,1.67.05,2.46,2.46,0,0,1,1.57,2,2.23,2.23,0,0,1-.33,1.55A1.81,1.81,0,0,1,280.55,285.83Z" style="fill:#263238"></path><path d="M236.31,304.71c.17,1.24,2,2,4,1.76s3.6-1.5,3.44-2.74-2-2-4-1.76S236.15,303.46,236.31,304.71Z" style="fill:#fff"></path><path d="M239.55,306.55c-1.73,0-3.12-.75-3.26-1.84h0a2,2,0,0,1,.89-1.76,5.3,5.3,0,0,1,2.57-1,5.21,5.21,0,0,1,2.74.32,1.74,1.74,0,0,1,.43,3.22,5.3,5.3,0,0,1-2.57,1A5.49,5.49,0,0,1,239.55,306.55Zm1-4.61a7.34,7.34,0,0,0-.81.05,5.19,5.19,0,0,0-2.54,1,1.91,1.91,0,0,0-.88,1.71h0c.16,1.23,2,2,4,1.74a5.17,5.17,0,0,0,2.55-1,1.7,1.7,0,0,0-.42-3.14A4.73,4.73,0,0,0,240.57,301.94Z" style="fill:#fff"></path><path d="M212.09,299.93a2.91,2.91,0,0,1,.22-.71c.18-.46.45-1.13.86-2a10.84,10.84,0,0,1,1.9-2.83c1-1,2.6-1.3,4.21-1.57,6.54-1.12,15.57-2.69,25.59-4.2l7.3-1.12c2.37-.3,4.66-.53,6.84-.78l11.59-1.27c3.28-.37,5.9-1,7.74-1.27.91-.15,1.63-.24,2.12-.29a4.11,4.11,0,0,1,.74,0,4.17,4.17,0,0,1-.73.14c-.48.08-1.19.21-2.1.39-1.82.33-4.42,1-7.73,1.43l-11.57,1.38c-2.18.26-4.46.51-6.83.81l-7.3,1.14c-10,1.51-19,3-25.6,4a7.63,7.63,0,0,0-4.08,1.42,11.21,11.21,0,0,0-1.91,2.71c-.44.82-.74,1.47-.94,1.92A4.45,4.45,0,0,1,212.09,299.93Z" style="fill:#263238"></path><path d="M182.08,303.73s10.84-6.71,14.34-8.11,10-.7,11.5-2.1l5-4.63s2.8,2.94,1,5.61-8.69,6.16-8.69,6.16l24.11-1.6s1.82,1.32.84,2.86c0,0,1.7,1.83.29,3.65s-18.55,16.35-23.93,16.79-20.95-2.42-20.95-2.42Z" style="fill:#ba7f72"></path><path d="M128,293.55,130,314.93s44.52-8.22,52-11.2l3.53,16.21s-59.32,27.87-72.73,27S95.23,295,95.23,295Z" style="fill:#ba7f72"></path><path d="M204.69,306a38.86,38.86,0,0,1,3.88.37,27.57,27.57,0,0,0,9.27-.33,39.58,39.58,0,0,0,4.84-1.71l3.95-1.53c1.12-.43,2-.77,2.67-1a4.74,4.74,0,0,1,1-.3,3.76,3.76,0,0,1-.93.49c-.61.28-1.51.67-2.62,1.14l-3.9,1.64a37.5,37.5,0,0,1-4.9,1.77,25.24,25.24,0,0,1-9.44.18c-1.19-.16-2.15-.33-2.81-.47A3.52,3.52,0,0,1,204.69,306Z" style="fill:#8b5d54"></path><path d="M207.38,313.86c0-.1,1.51.08,3.92,0a13.29,13.29,0,0,0,4.13-.73,26.44,26.44,0,0,0,4.64-2.28c1.59-.94,3.1-1.89,4.55-2.62s2.75-1.33,3.79-1.94a14.13,14.13,0,0,0,3.05-2.41,2.72,2.72,0,0,1-.61.88,11,11,0,0,1-2.25,1.84c-1,.67-2.35,1.31-3.76,2.05s-2.9,1.7-4.51,2.65a23.87,23.87,0,0,1-4.75,2.28,12.62,12.62,0,0,1-4.27.65,22.61,22.61,0,0,1-2.89-.22A4.38,4.38,0,0,1,207.38,313.86Z" style="fill:#8b5d54"></path><path d="M196.76,305.44c-.06,0-.28-.28-.37-.87a4.24,4.24,0,0,1,.35-2.24,6.59,6.59,0,0,1,1.28-1.84c.39-.4.68-.61.73-.56s-.84,1.14-1.53,2.62a5.11,5.11,0,0,0-.46,2C196.75,305.08,196.83,305.42,196.76,305.44Z" style="fill:#8b5d54"></path><path d="M198.45,312.16c0,.06-.26,0-.53-.21a2.27,2.27,0,0,1-.66-2.5c.13-.32.3-.47.35-.44s-.15.8.09,1.66S198.52,312,198.45,312.16Z" style="fill:#8b5d54"></path><path d="M185.61,319.94l.27,0,.79.12,3,.47c2.66.39,6.51,1,11.36,1.46,1.21.09,2.49.2,3.81.21.34,0,.67,0,1,0a3.74,3.74,0,0,0,1-.1,9.24,9.24,0,0,0,2-.64,50.33,50.33,0,0,0,7.87-4.83c2.66-1.92,5.4-4.05,8.18-6.36,1.38-1.17,2.8-2.36,4.17-3.63.65-.67,1.45-1.25,1.64-2.1a2.8,2.8,0,0,0-.71-2.44l-.13-.15.1-.16a1.44,1.44,0,0,0,.15-1.32,2.9,2.9,0,0,0-.92-1.2l.16.05-9.1.6-15,1-1.18.08,1-.56a41,41,0,0,0,7.29-4.68,8,8,0,0,0,1.37-1.48,3.1,3.1,0,0,0,.52-1.81,5.74,5.74,0,0,0-1.52-3.41h.32l-2.85,2.6-1.38,1.25a5.69,5.69,0,0,1-1.48,1.15,13,13,0,0,1-3.5.62c-1.13.1-2.23.17-3.29.27a21.54,21.54,0,0,0-3,.49,13.17,13.17,0,0,0-2.65,1c-1.65.83-3.14,1.66-4.48,2.41-2.67,1.51-4.76,2.74-6.18,3.58l-1.63.95-.42.24-.15.07s0,0,.13-.11l.4-.26,1.59-1c1.41-.87,3.47-2.14,6.13-3.69,1.33-.77,2.81-1.61,4.46-2.46a13.12,13.12,0,0,1,2.71-1.09,20.2,20.2,0,0,1,3.08-.52c1.07-.12,2.17-.19,3.3-.29a12.78,12.78,0,0,0,3.36-.62,5.13,5.13,0,0,0,1.36-1.08l1.37-1.26,2.84-2.61.17-.16.15.17a6.16,6.16,0,0,1,1.66,3.72,3.62,3.62,0,0,1-.59,2.08,8.12,8.12,0,0,1-1.45,1.59,40.92,40.92,0,0,1-7.38,4.76l-.13-.48,15-1,9.1-.6h.1l.07.05a3.42,3.42,0,0,1,1.11,1.44,2,2,0,0,1-.21,1.77l0-.31a3.29,3.29,0,0,1,.84,2.91,2.92,2.92,0,0,1-.78,1.33c-.33.37-.68.67-1,1-1.39,1.29-2.81,2.48-4.2,3.64-2.8,2.31-5.55,4.44-8.23,6.35a50.45,50.45,0,0,1-8,4.83,8.92,8.92,0,0,1-2.07.66,4.67,4.67,0,0,1-1,.1c-.34,0-.68,0-1,0-1.35,0-2.62-.13-3.84-.24-4.86-.5-8.71-1.17-11.36-1.61l-3-.56-.78-.16Z" style="fill:#8b5d54"></path><path d="M273.51,292.93c-6.05,2.32-13.48,4.64-19.53,6.52a4.84,4.84,0,0,0-2.19,1.13,1.66,1.66,0,0,0-.14,2.24,2.42,2.42,0,0,0,1.89.39l4.45-.31a32.35,32.35,0,0,0-9.51,4.56c-.77.54-1.59,1.26-1.57,2.2a2.06,2.06,0,0,0,1.69,1.78,6,6,0,0,0,2.61-.18q8.25-1.83,16.42-4.07a4.85,4.85,0,0,0,3.59-2.8l2.53-4a6.67,6.67,0,0,0,1.21-2.79,5.69,5.69,0,0,0-1.45-4.63" style="fill:#ba7f72"></path><path d="M129.72,260.31l-18-43.41-.41-1.32c-1.58.95-16.5,10.24-19.55,26s-2,53.28-2,53.28l40.3-1.3Z" style="fill:#7E57C2"></path><path d="M90.85,247.5a1.08,1.08,0,0,1,0,.24c0,.18,0,.4-.08.68-.07.6-.21,1.49-.33,2.64-.24,2.31-.55,5.67-.72,9.9-.35,8.44-.34,20.31.28,33.88l-.25-.24c4.39,0,9,0,13.79-.09,9.83-.22,19.12-.75,27.2-1.4l-.22.22c.47-10.08-.51-18.55-.84-24.51-.19-3-.29-5.33-.33-6.94,0-.78,0-1.39,0-1.84a4.27,4.27,0,0,1,0-.63,5.05,5.05,0,0,1,.06.63q0,.68.09,1.83c.09,1.61.23,4,.46,6.93.4,5.94,1.45,14.42,1,24.55v.21h-.2c-8.09.69-17.38,1.24-27.23,1.46-4.77.11-9.41.13-13.81.08h-.24v-.24c-.6-13.6-.53-25.47-.09-33.93.21-4.23.57-7.59.86-9.9.15-1.15.32-2,.42-2.63,0-.28.09-.5.12-.68A.79.79,0,0,1,90.85,247.5Z" style="fill:#263238"></path><path d="M113.74,216.73a4.06,4.06,0,0,1,1,.32,9.61,9.61,0,0,1,1.12.49,14.31,14.31,0,0,1,1.42.75,23.94,23.94,0,0,1,3.44,2.42,24.82,24.82,0,0,1,6.27,8.11,23.63,23.63,0,0,1,1.47,3.94,15.75,15.75,0,0,1,.37,1.57,8.33,8.33,0,0,1,.19,1.2,4.28,4.28,0,0,1,.07,1c-.1,0-.28-1.46-1-3.71a26.52,26.52,0,0,0-1.55-3.83,29.12,29.12,0,0,0-2.69-4.27,28,28,0,0,0-3.46-3.68,25,25,0,0,0-3.32-2.47C115.07,217.36,113.7,216.82,113.74,216.73Z" style="fill:#263238"></path><path d="M188.53,238.64s.13.15.31.48.47.8.79,1.43a53.78,53.78,0,0,1,2.43,5.5,69.83,69.83,0,0,1,4.34,19.32A48.67,48.67,0,0,1,196,276.3,76.62,76.62,0,0,1,193.9,285c-.68,2.44-1.18,4.43-1.49,5.81l-.37,1.59a2.54,2.54,0,0,1-.16.55,2,2,0,0,1,.06-.57c.06-.37.13-.92.27-1.61.25-1.4.7-3.41,1.34-5.86a86.76,86.76,0,0,0,1.95-8.66,50.27,50.27,0,0,0,.38-10.82,73.92,73.92,0,0,0-4.16-19.23c-.86-2.38-1.68-4.26-2.27-5.54-.28-.6-.52-1.09-.7-1.47A2.77,2.77,0,0,1,188.53,238.64Z" style="fill:#263238"></path><path d="M174.8,265a6.31,6.31,0,0,1,.17,1.32c0,.43.08.95.08,1.57s0,1.31,0,2.07a32.85,32.85,0,0,1-.72,5.37,38.37,38.37,0,0,1-2,6.31,37.22,37.22,0,0,1-3.21,5.8,32.58,32.58,0,0,1-3.43,4.19,19.74,19.74,0,0,1-1.49,1.45,14.08,14.08,0,0,1-1.19,1,6.46,6.46,0,0,1-1.09.78c-.07-.08,1.45-1.24,3.5-3.49a36.25,36.25,0,0,0,3.3-4.21,40,40,0,0,0,3.13-5.74,40.53,40.53,0,0,0,2-6.21,35.34,35.34,0,0,0,.82-5.28C174.88,266.93,174.69,265,174.8,265Z" style="fill:#263238"></path><path d="M129.84,293.44s-.17-.1-.46-.34l-1.25-1.05c-1.08-.92-2.62-2.27-4.51-4-3.77-3.39-8.92-8.15-14.46-13.55s-10.42-10.43-13.9-14.12c-1.74-1.85-3.13-3.35-4.08-4.41l-1.08-1.22a2.64,2.64,0,0,1-.35-.45,2.78,2.78,0,0,1,.43.38l1.15,1.15,4.2,4.3c3.54,3.62,8.46,8.6,14,14s10.63,10.19,14.34,13.64l4.4,4.09,1.18,1.12A2.92,2.92,0,0,1,129.84,293.44Z" style="fill:#fff"></path><path d="M194.52,220.36c.1.1-14.25,13.51-32,29.93S130.19,280,130.09,279.84s14.24-13.5,32-29.93S194.43,220.25,194.52,220.36Z" style="fill:#fff"></path><path d="M221.32,276a5.41,5.41,0,0,1-1.07-.42c-.68-.3-1.65-.75-2.84-1.33-2.39-1.15-5.65-2.82-9.18-4.78s-6.68-3.84-8.92-5.25c-1.12-.71-2-1.29-2.64-1.71a4.62,4.62,0,0,1-.92-.69,5.34,5.34,0,0,1,1,.52l2.72,1.56c2.29,1.33,5.45,3.15,9,5.11s6.76,3.68,9.09,4.91l2.77,1.48A4.42,4.42,0,0,1,221.32,276Z" style="fill:#fff"></path><path d="M142.5,119.61c-3.89-2.47-4.83-8.19-2.72-12.28s6.57-6.58,11.12-7.32a21.21,21.21,0,0,1,18.26,6c2.5,2.59,4.54,6,7.94,7.14,3,1,6.3.1,9.44.51,4.2.54,7.81,3.53,10,7.19s3.05,7.91,3.55,12.13c.45,3.87.75,8.11,3.44,10.93s6.75,3.34,10,5.3c6.13,3.68,8.11,12.81,4.07,18.7-1.29,1.88-3.14,3.6-3.29,5.88-.13,2.07,1.21,3.92,1.84,5.9,1.61,5.11-2.57,11.17-7.91,11.48-2.7.16-5.59-.9-8,.31s-3.3,4.1-4.84,6.3a11.55,11.55,0,0,1-14.09,3.64c-2-1-3.86-2.58-6.07-2.43s-3.93,2-6.1,2.44c-2.83.55-5.53-1.54-7.21-3.88s-2.86-5.11-5-7c-2.83-2.51-6.8-3.13-10.38-4.37a29.25,29.25,0,0,1-16.52-41" style="fill:#263238"></path><path d="M183.62,170.44a8,8,0,0,1,3.16-2.08h-.24a5.24,5.24,0,0,1,.67-.12,3.16,3.16,0,0,1,2.47.31h0a5.78,5.78,0,0,1,3.19,2.78,6.9,6.9,0,0,1-.82,7.11,5.27,5.27,0,0,1-9.68-1.81A6.55,6.55,0,0,1,183.62,170.44Z" style="fill:#455a64"></path><path d="M187.23,142.41c-1-10.95-8.65-24.21-19.56-22.75l-33.9,9.6A6.45,6.45,0,0,0,128.2,136l3.68,73.81,37.41,26.81c-.11-6.65,2.41-36.91,2.41-36.85s14-2.72,16.34-21.1C189.23,169.48,188.35,154.58,187.23,142.41Z" style="fill:#ba7f72"></path><path d="M185.48,158a2.34,2.34,0,0,1-2.2,2.43,2.24,2.24,0,0,1-2.48-2,2.34,2.34,0,0,1,2.2-2.43A2.24,2.24,0,0,1,185.48,158Z" style="fill:#263238"></path><path d="M184.22,150.26c-.29.32-2.1-.95-4.62-.87s-4.34,1.39-4.63,1.09c-.13-.13.15-.69.94-1.3a6.39,6.39,0,0,1,3.68-1.26,6.2,6.2,0,0,1,3.69,1.08C184.08,149.57,184.36,150.12,184.22,150.26Z" style="fill:#263238"></path><path d="M161.18,158a2.34,2.34,0,0,1-2.19,2.43,2.24,2.24,0,0,1-2.48-2,2.34,2.34,0,0,1,2.19-2.43A2.24,2.24,0,0,1,161.18,158Z" style="fill:#263238"></path><path d="M159.42,151.44c-.29.31-2.1-.95-4.63-.87s-4.34,1.39-4.62,1.09c-.14-.14.14-.7.93-1.31a6.53,6.53,0,0,1,3.69-1.25,6.16,6.16,0,0,1,3.69,1.08C159.27,150.75,159.55,151.3,159.42,151.44Z" style="fill:#263238"></path><path d="M169.11,169.9c0-.14,1.54-.46,4.08-.86.64-.08,1.25-.23,1.34-.67a3.29,3.29,0,0,0-.48-1.9q-1-2.31-2.05-4.85c-2.84-6.92-4.92-12.61-4.64-12.72s2.81,5.4,5.66,12.31c.68,1.71,1.34,3.33,2,4.89a3.7,3.7,0,0,1,.41,2.52,1.59,1.59,0,0,1-1,1,4.46,4.46,0,0,1-1.1.19C170.71,170,169.12,170,169.11,169.9Z" style="fill:#263238"></path><path d="M171.7,199.72A46.46,46.46,0,0,1,147,193.88s6.3,12.4,24.56,10.17Z" style="fill:#8b5d54"></path><path d="M168.91,175.91a6.26,6.26,0,0,0-5.2-2.57,4.07,4.07,0,0,0-3.27,1.91,3.91,3.91,0,0,0,.18,4.07,3.86,3.86,0,0,0,4.14,1.36,9.12,9.12,0,0,0,3.65-2.4,2.81,2.81,0,0,0,.77-1,1.28,1.28,0,0,0-.13-1.28" style="fill:#8b5d54"></path><path d="M161.73,171.86c.41,0,.49,2.7,2.89,4.58s5.31,1.49,5.34,1.88c0,.17-.63.55-1.86.62a6.88,6.88,0,0,1-4.46-1.42,6,6,0,0,1-2.25-3.84C161.25,172.53,161.54,171.85,161.73,171.86Z" style="fill:#263238"></path><path d="M160.24,141c-.23.7-2.76.44-5.72.88s-5.32,1.32-5.73.72c-.18-.29.21-1,1.16-1.64a10,10,0,0,1,8.72-1.22C159.77,140.16,160.33,140.68,160.24,141Z" style="fill:#263238"></path><path d="M183.08,141.6c-.43.58-2.18,0-4.27.07s-3.86.49-4.28-.09c-.19-.29.08-.87.83-1.44a6.23,6.23,0,0,1,6.89,0C183,140.73,183.27,141.31,183.08,141.6Z" style="fill:#263238"></path><path d="M199.56,138.57a12.6,12.6,0,0,0-4.82-6.93,43.19,43.19,0,0,1-4.07-2.37c-2.65-2.13-3.26-5.84-4.89-8.82a13.85,13.85,0,0,0-10.53-7c-3.62-.37-7.36.72-10.89-.17-2.61-.66-4.89-2.35-7.54-2.86-5.15-1-9.94,2.72-13.68,6.4,0,3.69,2.93,6.16,5.75,8.53a12.83,12.83,0,0,0,10.36,2.73c2.82-.51,5.9-1.94,8.34-.44s2.67,5.44,4.94,7.42c3.25,2.82,8.42.17,12.54,1.39,3.18.95,5.17,4,7.29,6.55s5.28,5,8.47,4.05A37.31,37.31,0,0,0,199.56,138.57Z" style="fill:#263238"></path><path d="M160.87,123c-2.31-.67-7-2.16-8.27-4.16-2.69-4.36-7.44-7.33-12.29-7.06A11.65,11.65,0,0,0,129.82,121a16.75,16.75,0,0,0-14.4,9.27,17.82,17.82,0,0,0-.92,2.15,12.75,12.75,0,0,0-.85,10.7c.8,2.09,2.16,4.41,1.09,6.37s-3.86,2.06-6,2.8a8.47,8.47,0,0,0-5.33,9.45c.3,1.39,1,2.78.67,4.17s-1.53,2.47-2.49,3.6a10.54,10.54,0,0,0,6.18,17.15c1.65.29,3.43.23,4.85,1.1,1.63,1,2.34,3,3.5,4.5a9.09,9.09,0,0,0,9.84,3.08,8,8,0,0,0,2-1c1.1,1.52,2.83,2.56,5.78,2.56L133,158.3a3.18,3.18,0,0,0,2.33,1.84c6.19,1.4,7.1-11.36,5.72-14.82a35.94,35.94,0,0,0,6.21-6.53c1.71-2.53,3.21-9.41,2.85-12.52C152.38,126.4,161.89,123.27,160.87,123Z" style="fill:#263238"></path><path d="M134.74,161.44c-.19-3.92-5-4.76-8.39-2.79-1.87,1.08-3.29,3.24-3.12,7.41.46,11.1,11.5,8.35,11.51,8S135,166,134.74,161.44Z" style="fill:#ba7f72"></path><path d="M131.18,170c-.05,0-.19.15-.51.31a2,2,0,0,1-1.45.09c-1.19-.38-2.25-2.2-2.39-4.2a6.46,6.46,0,0,1,.43-2.79,2.26,2.26,0,0,1,1.39-1.55,1,1,0,0,1,1.17.49c.16.3.1.52.16.54s.23-.19.12-.65a1.3,1.3,0,0,0-.47-.68,1.49,1.49,0,0,0-1.08-.24,2.75,2.75,0,0,0-2,1.81,6.59,6.59,0,0,0-.54,3.12c.16,2.23,1.4,4.28,3,4.68a2.08,2.08,0,0,0,1.76-.37C131.17,170.29,131.22,170,131.18,170Z" style="fill:#8b5d54"></path><path d="M145.59,120a6.72,6.72,0,0,0-2.22,1.85c-1.09,1.51-1.51,4.41-.81,7.68l.06.28-.28.07a10.73,10.73,0,0,0-7.15,6.3,8.51,8.51,0,0,0-.57,2.7,15.38,15.38,0,0,0,.35,2.94,22.31,22.31,0,0,1,.42,3.16,5.28,5.28,0,0,1-.88,3.27c-1.38,2.1-3.6,3.14-5.51,4.14a18.75,18.75,0,0,0-5.15,3.37,13.89,13.89,0,0,0-4.15,9.3,14.48,14.48,0,0,0,1.47,6.86c.73,1.52,1.35,2.24,1.29,2.29a2.82,2.82,0,0,1-.47-.5A11.38,11.38,0,0,1,120.9,172a14,14,0,0,1-1.75-7,14.27,14.27,0,0,1,4.19-9.8,19,19,0,0,1,5.31-3.54c1.91-1,4-2,5.2-3.89,1.23-1.68.68-3.88.36-5.87a16.6,16.6,0,0,1-.34-3.08,8.75,8.75,0,0,1,.65-3,11.25,11.25,0,0,1,7.69-6.6l-.22.35c-.65-3.42-.13-6.42,1.12-8a4.75,4.75,0,0,1,1.74-1.41A2.66,2.66,0,0,1,145.59,120Z" style="fill:#455a64"></path><path d="M127,174.18a7.94,7.94,0,0,1,3.16-2.08h-.25a5.39,5.39,0,0,1,.68-.12,3.16,3.16,0,0,1,2.47.31h0a5.8,5.8,0,0,1,3.19,2.77,6.89,6.89,0,0,1-.81,7.12,5.28,5.28,0,0,1-9.69-1.81A6.58,6.58,0,0,1,127,174.18Z" style="fill:#455a64"></path><path d="M184.32,165.49c2.09-.24,4.68-.66,5.45-1.4,1.15-1.08,2.34-5.11,3.36-8.91.13-.49.21-.82.25-.91l-.8-.31a9.76,9.76,0,0,0-.29,1c-.54,2-2,7.46-3.12,8.54-1.34,1.26-12.5,1.91-13.54,1.19-.64-.52-2.15-5.37-3-8.65l-.08-.3-4.44-.12-.11.28c-.87,2.21-3.57,8.21-5.52,9.33-2.45,1.39-12,.72-12.69-.23s-2.27-6.48-3.24-10.08l-.08-.32-13.55.55,0,.82,12.86-.52c.49,1.79,2.45,8.91,3.29,10,1.15,1.53,11.36,1.86,13.83.45s5.18-8,5.78-9.47l3.17.08c.5,1.86,2.2,8,3.23,8.78s6.55.38,7.18.33S183.52,165.57,184.32,165.49Z" style="fill:#455a64"></path><path d="M167.83,157.07l.87-1.42c-5.86-3.22-16.3-4.56-22.93-1.1l.81,1.44C152.49,152.91,162.34,154.06,167.83,157.07Z" style="fill:#455a64"></path><path d="M192.84,155.11l.65-1.52c-7.11-2.7-16.28-1.82-21.8,2.1l1,1.31C177.7,153.46,186.35,152.65,192.84,155.11Z" style="fill:#455a64"></path><path d="M246.63,414.94l-12.1,30s26.4,25.7,24.33,31.53l-59.45-25.3,20.09-47.88Z" style="fill:#7E57C2"></path><path d="M217.74,435.77a2.65,2.65,0,0,0-2.86,2.06,2.55,2.55,0,0,0,2,2.85,2.77,2.77,0,0,0,3-2.19c.08-1.3-1.13-2.85-2.42-2.74" style="fill:#e0e0e0"></path><path d="M199.41,451.19l2.22-4.75,56.17,26s2.15,2.28,1.06,4Z" style="fill:#263238"></path><path d="M236.12,446.28c-.13.29-1.64-.2-3.47.13s-3.1,1.22-3.32,1,.93-1.72,3.14-2.08S236.3,446,236.12,446.28Z" style="fill:#263238"></path><path d="M241.26,451.51c-.06.31-1.52.27-3,1.08s-2.35,2-2.63,1.85.23-1.86,2.12-2.83S241.37,451.23,241.26,451.51Z" style="fill:#263238"></path><path d="M241.62,460.48c-.29-.05-.07-1.67,1.35-2.94s3.05-1.33,3.07-1-1.19.79-2.34,1.85S241.92,460.57,241.62,460.48Z" style="fill:#263238"></path><path d="M198.3,326.45s65.08-16.6,72.16-16.16,29.88,4.65,21,31.21-48.7,94.08-48.7,94.08l-33.5-14.09,20-48.56s-41.9,12.6-59.14,13.61-31.4-23.35-31.4-23.35Z" style="fill:#263238"></path><path d="M253.86,335A11.91,11.91,0,0,1,256,333a30.38,30.38,0,0,1,6.12-3.81,32.44,32.44,0,0,1,6.83-2.31c1.79-.41,2.81-.87,2.85-.81a7.91,7.91,0,0,1-2.75,1.17,40.37,40.37,0,0,0-6.71,2.42,38.41,38.41,0,0,0-6.12,3.63C254.77,334.36,253.91,335.1,253.86,335Z" style="fill:#455a64"></path><path d="M241.34,356.39a4,4,0,0,1,.35-1c.26-.61.65-1.47,1.15-2.54a88,88,0,0,1,4.35-8.11,89,89,0,0,1,5.24-7.56c.72-.93,1.32-1.67,1.74-2.18a3.93,3.93,0,0,1,.7-.75,3.64,3.64,0,0,1-.54.87c-.44.64-1,1.39-1.6,2.28-1.35,1.92-3.23,4.56-5.1,7.61s-3.37,5.93-4.46,8l-1.3,2.46A3.65,3.65,0,0,1,241.34,356.39Z" style="fill:#455a64"></path><path d="M178.24,321.39c2.64-1.07,10.81-3.81,13.66-3.95,4.43-.23,10.83,0,15,2.8,6.88,4.59,94.87,97.46,94.87,97.46l-24.69,30.35s-45.29-32.84-57.41-45.94-25.87-33.73-25.87-33.73-16.42,17.36-31.7,24.94c-9.51,4.72-32.79,10-52.82,8.24a30.6,30.6,0,0,1-27.78-33.83c0-.11,0-.22,0-.34a82.37,82.37,0,0,1,1.87-8.85h0Z" style="fill:#263238"></path><path d="M160.33,394.12l.61-.4,1.82-1.14c1.6-1,4-2.49,7-4.49s6.71-4.53,10.83-7.72a90.58,90.58,0,0,0,13.06-12.1l.17-.19.1.24a67,67,0,0,0,5.5,9.65c2.21,3.22,4.73,6.44,7.48,9.7s5.78,6.49,9,9.77,6.65,6.57,10.26,9.89c7.22,6.62,15.15,13.34,23.66,20.09S267.39,441,277,447.69l-.34,0,23.75-28.48,1.31-1.57V418c-18.53-19.31-36.16-37.69-52.2-54.39L226.68,340c-3.6-3.67-7.07-7.23-10.46-10.59-1.69-1.67-3.38-3.29-5.05-4.85a37.51,37.51,0,0,0-5.13-4.26,24.55,24.55,0,0,0-8.83-3,17.16,17.16,0,0,0-3,.06,63.18,63.18,0,0,0-10.83,2.35c-6.64,2-12.24,4.1-16.79,5.87s-8,3.25-10.41,4.25L153.53,331c-.6.26-.92.38-.92.38l.9-.43,2.67-1.2c2.35-1,5.84-2.53,10.38-4.34s10.13-3.94,16.78-6a62.89,62.89,0,0,1,10.88-2.39,17.7,17.7,0,0,1,3-.08,18.69,18.69,0,0,1,3.05.6,19.39,19.39,0,0,1,6,2.4,38.61,38.61,0,0,1,5.19,4.29c1.68,1.56,3.37,3.17,5.08,4.85,3.4,3.35,6.87,6.9,10.48,10.57l22.89,23.58,52.23,54.36.16.16-.15.18-1.31,1.57c-8.13,9.76-16.09,19.29-23.76,28.48l-.15.18-.19-.13c-9.62-6.71-18.69-13.55-27.2-20.31s-16.44-13.5-23.66-20.14c-3.61-3.33-7-6.65-10.26-9.92s-6.21-6.58-9-9.82-5.27-6.51-7.48-9.75a66,66,0,0,1-5.49-9.73l.27.05a91.06,91.06,0,0,1-13.15,12.08c-4.15,3.18-7.85,5.68-10.89,7.66s-5.44,3.44-7.05,4.43l-1.84,1.1Z" style="fill:#455a64"></path></g><g id="freepik--progress-indicator--inject-89"><path d="M450.13,130.15H234.92a3.71,3.71,0,0,0-3.65,3.75V244a3.71,3.71,0,0,0,3.65,3.76h7.26v20.31l19.76-20.31H450.13a3.7,3.7,0,0,0,3.65-3.76V133.9A3.7,3.7,0,0,0,450.13,130.15Z" style="fill:#fff"></path><path d="M235.63,130.15H449.42a4.37,4.37,0,0,1,4.37,4.37v16.11a0,0,0,0,1,0,0H231.27a0,0,0,0,1,0,0V134.51A4.37,4.37,0,0,1,235.63,130.15Z" style="fill:#e0e0e0"></path><path d="M245,140.72a2.81,2.81,0,1,1-2.8-2.88A2.85,2.85,0,0,1,245,140.72Z" style="fill:#fff"></path><path d="M254,140.72a2.81,2.81,0,1,1-2.8-2.88A2.85,2.85,0,0,1,254,140.72Z" style="fill:#fff"></path><path d="M263.35,140.72a2.81,2.81,0,1,1-2.8-2.88A2.84,2.84,0,0,1,263.35,140.72Z" style="fill:#fff"></path><path d="M330.55,139.89c0,1.3-.95,2.1-2.46,2.1H327v1.61h-1.31v-5.82h2.45C329.6,137.78,330.55,138.59,330.55,139.89Zm-1.33,0c0-.64-.4-1-1.2-1H327v2H328C328.82,140.9,329.22,140.52,329.22,139.89Z" style="fill:#263238"></path><path d="M334.09,139.06v1.2l-.29,0c-.69,0-1.15.39-1.15,1.25v2.11h-1.27v-4.47h1.21v.59A1.74,1.74,0,0,1,334.09,139.06Z" style="fill:#263238"></path><path d="M334.47,141.36a2.39,2.39,0,1,1,2.39,2.3A2.27,2.27,0,0,1,334.47,141.36Zm3.5,0a1.12,1.12,0,1,0-2.22,0,1.12,1.12,0,1,0,2.22,0Z" style="fill:#263238"></path><path d="M339.76,141.36a2.28,2.28,0,0,1,2.43-2.3,2,2,0,0,1,1.95,1.14l-1,.54a1.08,1.08,0,0,0-1-.61,1.24,1.24,0,0,0,0,2.47,1.06,1.06,0,0,0,1-.61l1,.54a2,2,0,0,1-1.95,1.13A2.27,2.27,0,0,1,339.76,141.36Z" style="fill:#263238"></path><path d="M349,141.73h-3.29a1.16,1.16,0,0,0,1.25.89,1.45,1.45,0,0,0,1.09-.43l.67.75a2.25,2.25,0,0,1-1.8.72,2.28,2.28,0,0,1-2.48-2.3,2.25,2.25,0,0,1,2.32-2.3,2.19,2.19,0,0,1,2.27,2.32C349.07,141.48,349.05,141.62,349,141.73Zm-3.3-.76h2.14a1,1,0,0,0-1.07-.93A1,1,0,0,0,345.74,141Z" style="fill:#263238"></path><path d="M349.48,143.18l.42-.93a2.91,2.91,0,0,0,1.52.43c.58,0,.8-.16.8-.4,0-.73-2.63,0-2.63-1.77,0-.85.74-1.45,2-1.45a3.53,3.53,0,0,1,1.68.39l-.42.92a2.55,2.55,0,0,0-1.26-.33c-.56,0-.81.19-.81.42,0,.76,2.63,0,2.63,1.78,0,.83-.75,1.42-2.05,1.42A3.73,3.73,0,0,1,349.48,143.18Z" style="fill:#263238"></path><path d="M353.77,143.18l.42-.93a2.91,2.91,0,0,0,1.52.43c.58,0,.8-.16.8-.4,0-.73-2.63,0-2.63-1.77,0-.85.74-1.45,2-1.45a3.53,3.53,0,0,1,1.68.39l-.42.92a2.55,2.55,0,0,0-1.26-.33c-.56,0-.81.19-.81.42,0,.76,2.63,0,2.63,1.78,0,.83-.75,1.42-2,1.42A3.73,3.73,0,0,1,353.77,143.18Z" style="fill:#263238"></path><path d="M358.18,142.85a.78.78,0,1,1,1.56,0,.78.78,0,1,1-1.56,0Z" style="fill:#263238"></path><path d="M360.29,142.85a.79.79,0,1,1,1.57,0,.79.79,0,1,1-1.57,0Z" style="fill:#263238"></path><path d="M362.41,142.85a.79.79,0,1,1,1.57,0,.79.79,0,1,1-1.57,0Z" style="fill:#263238"></path><rect x="392.73" y="217.23" width="47.64" height="16.23" rx="7.49" style="fill:#e0e0e0"></rect><path d="M406.09,225a2.39,2.39,0,0,1,2.46-2.46,2.23,2.23,0,0,1,1.72.71l-.31.32a1.86,1.86,0,0,0-1.39-.57,2,2,0,0,0,0,4,1.87,1.87,0,0,0,1.39-.58l.31.32a2.23,2.23,0,0,1-1.72.71A2.39,2.39,0,0,1,406.09,225Z" style="fill:#fff"></path><path d="M413.84,225.12v2.25h-.45v-.56a1.34,1.34,0,0,1-1.22.6c-.8,0-1.29-.43-1.29-1.06s.35-1,1.36-1h1.12v-.22a.88.88,0,0,0-1-1,1.78,1.78,0,0,0-1.17.43l-.22-.36a2.22,2.22,0,0,1,1.44-.49A1.27,1.27,0,0,1,413.84,225.12Zm-.48,1.16v-.59h-1.1c-.69,0-.91.27-.91.65s.33.68.89.68A1.11,1.11,0,0,0,413.36,226.28Z" style="fill:#fff"></path><path d="M418.38,225.27v2.1h-.47v-2.05c0-.77-.39-1.16-1.06-1.16a1.18,1.18,0,0,0-1.24,1.31v1.9h-.47v-3.63h.45v.67a1.47,1.47,0,0,1,1.34-.69A1.37,1.37,0,0,1,418.38,225.27Z" style="fill:#fff"></path><path d="M419.34,225.56a1.75,1.75,0,0,1,1.81-1.84,1.54,1.54,0,0,1,1.39.71l-.36.25a1.2,1.2,0,0,0-1-.54,1.42,1.42,0,0,0,0,2.83,1.16,1.16,0,0,0,1-.53l.36.25a1.55,1.55,0,0,1-1.39.72A1.77,1.77,0,0,1,419.34,225.56Z" style="fill:#fff"></path><path d="M426.48,225.71h-3a1.32,1.32,0,0,0,1.39,1.26,1.39,1.39,0,0,0,1.08-.47l.27.31a1.72,1.72,0,0,1-1.36.6,1.78,1.78,0,0,1-1.86-1.85,1.72,1.72,0,1,1,3.44,0S426.48,225.65,426.48,225.71Zm-3-.37H426a1.25,1.25,0,0,0-2.5,0Z" style="fill:#fff"></path><path d="M427.46,222.25h.48v5.12h-.48Z" style="fill:#fff"></path><path d="M450.13,247.75a3.87,3.87,0,0,0,1.72-.48,3.71,3.71,0,0,0,1.87-3c0-.51,0-1.06,0-1.65,0-4.69,0-11.59-.05-20.47,0-17.79-.05-43.52-.08-75.31q0-6,0-12.2a8.38,8.38,0,0,0-.07-1.52,3.61,3.61,0,0,0-.6-1.36,3.41,3.41,0,0,0-2.51-1.45c-2.09,0-4.26,0-6.42,0H416.94l-59.68,0H236.33a11.1,11.1,0,0,0-2.18.09,3.48,3.48,0,0,0-2.59,3c-.06,2.95,0,6,0,9v59c0,9.57,0,19,0,28.27v13.78a3.7,3.7,0,0,0,1,2.93,3.36,3.36,0,0,0,1.33.83,4.14,4.14,0,0,0,1.59.18h7v20.56l-.42-.17,19.78-20.3.06-.07h.1l136.2.09,38.37.07,10.14,0,2.6,0,.88,0-.88,0h-2.6l-10.14,0-38.37.06-136.2.1.17-.07-19.76,20.31-.41.43v-.59q0-10,0-20.31l.25.24h-6.72a5,5,0,0,1-1.75-.2,4,4,0,0,1-1.52-1,4.2,4.2,0,0,1-1.17-3.28V229.78c0-9.26,0-18.7,0-28.27v-59c0-3,0-6,0-9.1a4,4,0,0,1,3-3.41,10.64,10.64,0,0,1,2.3-.11h55l66,0,59.68,0L444,130c2.17,0,4.3,0,6.45,0a3.78,3.78,0,0,1,2.8,1.62,4,4,0,0,1,.66,1.5,8.75,8.75,0,0,1,.08,1.6q0,6.24,0,12.2c0,31.79-.07,57.52-.09,75.31,0,8.88,0,15.78,0,20.47,0,.59,0,1.13,0,1.66a3.76,3.76,0,0,1-.39,1.39,3.84,3.84,0,0,1-1.54,1.6,3.62,3.62,0,0,1-1.29.41A3.19,3.19,0,0,1,450.13,247.75Z" style="fill:#263238"></path><rect x="246.09" y="181.45" width="195.4" height="19.2" rx="8.86" style="fill:#fff"></rect><path d="M432.62,200.65l.27,0c.18,0,.45,0,.79-.07a9,9,0,0,0,3-.94,8.64,8.64,0,0,0,1.87-1.31,8.7,8.7,0,0,0,2.76-5.18,4.93,4.93,0,0,0,.09-.87c0-.3,0-.6,0-.91,0-.62,0-1.25-.05-1.9a8.83,8.83,0,0,0-4.62-6.85,9.44,9.44,0,0,0-2.25-.82,11.42,11.42,0,0,0-2.5-.19h-5.39l-25.27,0L255,181.71a8.59,8.59,0,0,0-4.88,1.52,8.65,8.65,0,0,0-3.14,4,11.93,11.93,0,0,0-.56,5.09,8.42,8.42,0,0,0,1.73,4.7,8.71,8.71,0,0,0,4,2.92,14.46,14.46,0,0,0,5,.48h49l65.79.06,44.36.08,12.06,0,3.13,0,1.07,0-1.07,0-3.13,0-12.06,0-44.36.08-65.79,0-38.86,0H257.16c-.86,0-1.71,0-2.59,0a8.31,8.31,0,0,1-2.6-.49,9.09,9.09,0,0,1-6.11-8.07,26.22,26.22,0,0,1,0-2.66,9,9,0,0,1,.59-2.65,9.17,9.17,0,0,1,3.34-4.22,10.2,10.2,0,0,1,2.46-1.2,10.34,10.34,0,0,1,2.71-.41l146.35.08,25.27,0H432a11.41,11.41,0,0,1,2.55.21,9.87,9.87,0,0,1,2.32.85,9,9,0,0,1,4.7,7.05c0,.67,0,1.31,0,1.92,0,.31,0,.62,0,.92a5.27,5.27,0,0,1-.09.89,8.74,8.74,0,0,1-1.09,3.07,8.47,8.47,0,0,1-1.76,2.17,8.58,8.58,0,0,1-1.92,1.32,8.8,8.8,0,0,1-3,.89A8.58,8.58,0,0,1,432.62,200.65Z" style="fill:#263238"></path><path d="M422.08,192.41A1.91,1.91,0,0,1,420,194.3c-1.54,0-2.45-1-2.45-2.89s1.14-3.09,2.78-3.09a2.82,2.82,0,0,1,1.49.37l-.39.82a1.88,1.88,0,0,0-1.08-.29c-1.07,0-1.74.68-1.74,2h0a1.93,1.93,0,0,1,1.52-.6A1.78,1.78,0,0,1,422.08,192.41Zm-1,.05c0-.61-.45-1-1.14-1a1,1,0,0,0-1.15,1c0,.55.42,1,1.18,1A1,1,0,0,0,421.07,192.46Z" style="fill:#263238"></path><path d="M422.63,191.31c0-1.91,1-3,2.36-3s2.37,1.08,2.37,3-1,3-2.37,3S422.63,193.22,422.63,191.31Zm3.67,0c0-1.41-.53-2.05-1.31-2.05s-1.3.64-1.3,2.05.53,2.05,1.3,2.05S426.3,192.71,426.3,191.31Z" style="fill:#263238"></path><path d="M428,189.94c0-1,.54-1.6,1.35-1.6s1.36.63,1.36,1.6a1.37,1.37,0,1,1-2.71,0Zm2,0c0-.65-.26-1-.69-1s-.7.38-.7,1,.28,1,.7,1S430,190.58,430,189.94Zm2.7-1.54h.8l-3.87,5.81h-.79Zm-1,4.28c0-1,.54-1.6,1.35-1.6a1.62,1.62,0,1,1-1.35,1.6Zm2.05,0c0-.64-.27-1-.7-1s-.7.37-.7,1,.27,1,.7,1S433.74,193.32,433.74,192.68Z" style="fill:#263238"></path><rect x="248.57" y="183.76" width="101.49" height="14.64" rx="6.76" style="fill:#7E57C2"></rect><g style="opacity:0.2"><polygon points="254.46 198.4 263.18 183.76 267.84 183.76 259.24 198.4 254.46 198.4" style="fill:#fff"></polygon></g><g style="opacity:0.2"><polygon points="265.99 198.4 274.7 183.76 279.36 183.76 270.77 198.4 265.99 198.4" style="fill:#fff"></polygon></g><g style="opacity:0.2"><polygon points="277.51 198.4 286.23 183.76 290.89 183.76 282.3 198.4 277.51 198.4" style="fill:#fff"></polygon></g><g style="opacity:0.2"><polygon points="289.04 198.4 297.76 183.76 302.41 183.76 293.82 198.4 289.04 198.4" style="fill:#fff"></polygon></g><g style="opacity:0.2"><polygon points="300.56 198.4 309.28 183.76 313.94 183.76 305.35 198.4 300.56 198.4" style="fill:#fff"></polygon></g><g style="opacity:0.2"><polygon points="312.09 198.4 320.81 183.76 325.46 183.76 316.87 198.4 312.09 198.4" style="fill:#fff"></polygon></g><g style="opacity:0.2"><polygon points="323.62 198.4 332.33 183.76 336.99 183.76 328.4 198.4 323.62 198.4" style="fill:#fff"></polygon></g><g style="opacity:0.2"><path d="M335.14,198.4l8.67-14.58a6.72,6.72,0,0,1,3.7,1.66l-7.59,12.92Z" style="fill:#fff"></path></g><path d="M405.62,208.58c0,.14-27.11.26-60.55.26s-60.56-.12-60.56-.26,27.1-.26,60.56-.26S405.62,208.44,405.62,208.58Z" style="fill:#e0e0e0"></path></g></svg>